<svg width="1699" height="382" viewBox="0 0 1699 382" fill="none" xmlns="http://www.w3.org/2000/svg">
<path d="M475.5 186.499C366 227.499 321.5 241 321.5 241C321.5 241 230.5 220.5 142 241C61.6281 259.617 -0.000432785 275.463 0 341.5C0.000173685 368.001 61.0001 369.972 164.5 357.499C297.5 341.469 405.5 360.497 438 357.499C609.671 341.66 768 381 853.5 381C1085.67 387 1315 357.499 1564.5 357.499C1648.77 357.499 1671 331 1694.5 281C1718 231 1645 208 1417 227.499C1358.21 232.526 1246 186.008 1184 142.003C1112.9 91.5387 1057.87 57.9925 1012.5 33.0031C953.5 0.503075 915.5 0 853.5 0C791.5 0 683.641 43.5982 635.5 79.5C551.689 142.003 611.552 135.557 475.5 186.499Z" fill="#FFCFD8"/>
<path d="M1075.63 206.631C1075.63 245.301 1007.78 264.979 833.96 276C723.329 276 675 245.301 675 206.631C675 167.962 764.684 123 875.316 123C985.947 123 1082.74 135.318 1075.63 206.631Z" fill="url(#paint0_radial_88_4)"/>
<defs>
<radialGradient id="paint0_radial_88_4" cx="0" cy="0" r="1" gradientUnits="userSpaceOnUse" gradientTransform="translate(875.316 206.631) rotate(90) scale(70.0169 200.316)">
<stop offset="0.0572917" stop-color="#AE7FFB"/>
<stop offset="1" stop-color="#666565"/>
</radialGradient>
</defs>
</svg>
