<svg width="2018" height="848" viewBox="0 0 2018 848" fill="none" xmlns="http://www.w3.org/2000/svg">
<path d="M554.587 354.472C554.587 354.472 339.721 365.706 203.252 397.309C87.1079 424.204 -2.76909e-06 394.416 0 510.766C1.86317e-06 589.051 269.156 460.457 380.044 448.88C752.032 410.041 690.91 466.495 873.983 521.08C946.333 542.652 1022.34 552.023 1071.43 582.966C1120.51 613.908 1129.5 644.851 1129.5 696.423C1129.5 749.015 1048.48 808.75 1097.56 839.692C1163.01 880.95 1228.22 758.308 1228.22 696.423C1228.22 634.537 1247.2 593.28 1247.2 582.966C1247.2 572.651 1230.84 562.337 1279.92 521.08C1329 479.823 1410.81 500.451 1623.51 510.766C1836.21 521.08 1819.84 582.966 1885.29 521.08C1937.65 471.571 1814.98 448.88 1756.68 448.88H1607.15C1329 448.88 1378.09 407.623 1378.09 407.623C1378.09 407.623 1378.09 376.68 1492.62 345.737C1613.67 313.031 1720.19 280.507 1901.65 221.966C2083.11 163.425 2032.54 87.8802 1885.29 149.766C1738.04 211.652 1721.68 191.023 1672.59 211.652C1623.51 232.28 1590.79 242.594 1525.34 252.909C1459.89 263.223 1361.73 294.166 1263.56 294.166C1165.39 294.166 985.414 252.909 969.053 252.909C952.692 252.909 854.526 221.967 821.802 211.652L821.8 211.652C789.078 201.337 702.479 157.059 690.91 149.766C674.549 139.452 609.104 108.509 576.38 87.8802C478.213 25.9962 429.128 -15.2626 380.044 5.36595C339.203 22.5299 522.91 120.251 548.78 136.559C581.503 157.188 615.509 194.669 624.273 211.652C645.5 252.779 638.791 283.851 638.791 283.851C638.791 283.851 627.96 338.347 595.237 348.661C574.542 355.185 554.587 354.472 554.587 354.472Z" fill="#E2BCFF"/>
<path d="M1191.33 442.989C1167.87 511.28 1056.1 492.359 908.199 457.274C786.962 428.514 742.096 381.824 752.294 338.838C762.492 295.852 825.383 266.564 946.62 295.324C1067.86 324.085 1217.93 365.563 1191.33 442.989Z" fill="url(#paint0_radial_189_2279)"/>
<defs>
<radialGradient id="paint0_radial_189_2279" cx="0" cy="0" r="1" gradientUnits="userSpaceOnUse" gradientTransform="translate(981.248 391.948) rotate(103.346) scale(79.9928 225.611)">
<stop offset="0.0572917" stop-color="#AE7FFB"/>
<stop offset="1" stop-color="#666565"/>
</radialGradient>
</defs>
</svg>
