<svg width="1417" height="484" viewBox="0 0 1417 484" fill="none" xmlns="http://www.w3.org/2000/svg">
<path d="M21.0849 331.074C-11.8773 331.074 -1.72466 431.859 21.0848 476.047C30.021 493.359 481.798 476.047 591.276 476.047H1335.08C1474.08 476.047 1392.58 331.074 1392.58 331.074C1392.58 331.074 1236.78 293.464 1106.08 174.574C868.085 -41.9261 785.065 -0.277312 687.585 10.0739C593.78 20.0347 448.585 68.0739 377.585 174.574C327.205 250.143 307.572 232.008 242.585 283.074C159.585 348.294 189.085 331.074 21.0849 331.074Z" fill="#FFCFD8"/>
<path d="M889.586 194.5C899.823 320.986 828.5 339.842 724.373 339.842C638.55 339.842 589.703 301.226 581.185 233.01C572.667 164.795 601.576 93.7323 686.739 83.098C767.5 58.5 879.348 68.014 889.586 194.5Z" fill="url(#paint0_radial_149_3251)"/>
<defs>
<radialGradient id="paint0_radial_149_3251" cx="0" cy="0" r="1" gradientUnits="userSpaceOnUse" gradientTransform="translate(743.224 225.301) rotate(82.8823) scale(124.475 155.398)">
<stop offset="0.0572917" stop-color="#AE7FFB"/>
<stop offset="1" stop-color="#666565"/>
</radialGradient>
</defs>
</svg>
