<svg width="1426" height="312" viewBox="0 0 1426 312" fill="none" xmlns="http://www.w3.org/2000/svg">
<path fill-rule="evenodd" clip-rule="evenodd" d="M78.7458 99.5806C113.144 126.702 155.104 159.786 190.084 198.13C237.068 249.632 694.265 228.294 694.265 228.294L694.271 228.294C894.067 240.986 938.543 243.812 1092.57 284.948C1246.59 326.086 1415.78 236.632 1415.78 236.632C1415.78 236.632 1392.98 98.1645 1174.02 84.2551L899.634 66.825L636.881 50.1338L274.228 27.0964C260.384 26.217 247.921 23.4014 233.901 20.2342C197.474 12.005 150.54 1.40215 41.5844 16.2201C-16.8936 24.1731 19.8379 53.1343 78.7458 99.5806ZM222.021 117.131C220.998 133.239 314.862 146.631 411.023 154.229C531.225 163.727 692.611 172.117 692.611 172.117L692.616 172.117C840.231 181.495 873.092 183.582 988.069 195.394C1103.05 207.206 1224.28 200.5 1224.28 200.5C1224.28 200.5 1202.27 179.401 1040.5 169.125L837.773 156.247L643.644 143.915L375.706 126.894C364.723 126.197 351.3 124.471 336.473 122.565C301.614 118.083 258.987 112.603 222.021 117.131Z" fill="#EE8585"/>
<ellipse cx="1225.5" cy="248" rx="24.5" ry="26" fill="url(#paint0_radial_85_562)" fill-opacity="0.25"/>
<ellipse cx="844.5" cy="109" rx="24.5" ry="26" fill="url(#paint1_radial_85_562)" fill-opacity="0.25"/>
<ellipse cx="554.5" cy="202" rx="24.5" ry="26" fill="url(#paint2_radial_85_562)" fill-opacity="0.25"/>
<ellipse cx="631.5" cy="102" rx="24.5" ry="26" fill="url(#paint3_radial_85_562)" fill-opacity="0.25"/>
<ellipse cx="383" cy="189" rx="25" ry="26" fill="url(#paint4_radial_85_562)"/>
<ellipse cx="738" cy="101" rx="26" ry="28" fill="url(#paint5_radial_85_562)"/>
<ellipse cx="1304.5" cy="197" rx="29.5" ry="31" fill="url(#paint6_radial_85_562)"/>
<ellipse cx="135.5" cy="52" rx="29.5" ry="31" fill="url(#paint7_radial_85_562)"/>
<ellipse cx="1227.5" cy="138" rx="26.5" ry="28" fill="url(#paint8_radial_85_562)"/>
<ellipse cx="1128.5" cy="128" rx="26.5" ry="28" fill="url(#paint9_radial_85_562)"/>
<ellipse cx="1047.5" cy="116" rx="26.5" ry="28" fill="url(#paint10_radial_85_562)"/>
<ellipse cx="1044.5" cy="230" rx="26.5" ry="28" fill="url(#paint11_radial_85_562)"/>
<ellipse cx="945.5" cy="214" rx="26.5" ry="28" fill="url(#paint12_radial_85_562)"/>
<ellipse cx="849.5" cy="213" rx="26.5" ry="28" fill="url(#paint13_radial_85_562)"/>
<ellipse cx="739.5" cy="200" rx="26.5" ry="28" fill="url(#paint14_radial_85_562)"/>
<ellipse cx="635.5" cy="197" rx="26.5" ry="28" fill="url(#paint15_radial_85_562)"/>
<ellipse cx="945.5" cy="116" rx="26.5" ry="28" fill="url(#paint16_radial_85_562)"/>
<ellipse cx="524.5" cy="98" rx="26.5" ry="28" fill="url(#paint17_radial_85_562)"/>
<ellipse cx="313.5" cy="70" rx="26.5" ry="28" fill="url(#paint18_radial_85_562)"/>
<ellipse cx="236.5" cy="60" rx="26.5" ry="28" fill="url(#paint19_radial_85_562)"/>
<ellipse cx="183.5" cy="113" rx="26.5" ry="28" fill="url(#paint20_radial_85_562)"/>
<ellipse cx="408.5" cy="76" rx="26.5" ry="28" fill="url(#paint21_radial_85_562)"/>
<ellipse cx="1146.5" cy="242" rx="25.5" ry="27" fill="url(#paint22_radial_85_562)"/>
<ellipse cx="460.5" cy="195" rx="25.5" ry="27" fill="url(#paint23_radial_85_562)"/>
<ellipse cx="236" cy="162" rx="26" ry="27" fill="url(#paint24_radial_85_562)" fill-opacity="0.35"/>
<defs>
<radialGradient id="paint0_radial_85_562" cx="0" cy="0" r="1" gradientUnits="userSpaceOnUse" gradientTransform="translate(1225.5 248) rotate(90) scale(26 24.5)">
<stop offset="0.0572917" stop-color="#AE7FFB"/>
<stop offset="1" stop-color="#666565"/>
</radialGradient>
<radialGradient id="paint1_radial_85_562" cx="0" cy="0" r="1" gradientUnits="userSpaceOnUse" gradientTransform="translate(844.5 109) rotate(90) scale(26 24.5)">
<stop offset="0.0572917" stop-color="#AE7FFB"/>
<stop offset="1" stop-color="#666565"/>
</radialGradient>
<radialGradient id="paint2_radial_85_562" cx="0" cy="0" r="1" gradientUnits="userSpaceOnUse" gradientTransform="translate(554.5 202) rotate(90) scale(26 24.5)">
<stop offset="0.0572917" stop-color="#AE7FFB"/>
<stop offset="1" stop-color="#666565"/>
</radialGradient>
<radialGradient id="paint3_radial_85_562" cx="0" cy="0" r="1" gradientUnits="userSpaceOnUse" gradientTransform="translate(631.5 102) rotate(90) scale(26 24.5)">
<stop offset="0.0572917" stop-color="#AE7FFB"/>
<stop offset="1" stop-color="#666565"/>
</radialGradient>
<radialGradient id="paint4_radial_85_562" cx="0" cy="0" r="1" gradientUnits="userSpaceOnUse" gradientTransform="translate(383 189) rotate(90) scale(26 25)">
<stop offset="0.0572917" stop-color="#AE7FFB"/>
<stop offset="1" stop-color="#666565"/>
</radialGradient>
<radialGradient id="paint5_radial_85_562" cx="0" cy="0" r="1" gradientUnits="userSpaceOnUse" gradientTransform="translate(738 101) rotate(90) scale(28 26)">
<stop offset="0.0572917" stop-color="#AE7FFB"/>
<stop offset="1" stop-color="#666565"/>
</radialGradient>
<radialGradient id="paint6_radial_85_562" cx="0" cy="0" r="1" gradientUnits="userSpaceOnUse" gradientTransform="translate(1304.5 197) rotate(90) scale(31 29.5)">
<stop offset="0.0572917" stop-color="#AE7FFB"/>
<stop offset="1" stop-color="#666565"/>
</radialGradient>
<radialGradient id="paint7_radial_85_562" cx="0" cy="0" r="1" gradientUnits="userSpaceOnUse" gradientTransform="translate(135.5 52) rotate(90) scale(31 29.5)">
<stop offset="0.0572917" stop-color="#AE7FFB"/>
<stop offset="1" stop-color="#666565"/>
</radialGradient>
<radialGradient id="paint8_radial_85_562" cx="0" cy="0" r="1" gradientUnits="userSpaceOnUse" gradientTransform="translate(1227.5 138) rotate(90) scale(28 26.5)">
<stop offset="0.0572917" stop-color="#AE7FFB"/>
<stop offset="1" stop-color="#666565"/>
</radialGradient>
<radialGradient id="paint9_radial_85_562" cx="0" cy="0" r="1" gradientUnits="userSpaceOnUse" gradientTransform="translate(1128.5 128) rotate(90) scale(28 26.5)">
<stop offset="0.0572917" stop-color="#AE7FFB"/>
<stop offset="1" stop-color="#666565"/>
</radialGradient>
<radialGradient id="paint10_radial_85_562" cx="0" cy="0" r="1" gradientUnits="userSpaceOnUse" gradientTransform="translate(1047.5 116) rotate(90) scale(28 26.5)">
<stop offset="0.0572917" stop-color="#AE7FFB"/>
<stop offset="1" stop-color="#666565"/>
</radialGradient>
<radialGradient id="paint11_radial_85_562" cx="0" cy="0" r="1" gradientUnits="userSpaceOnUse" gradientTransform="translate(1044.5 230) rotate(90) scale(28 26.5)">
<stop offset="0.0572917" stop-color="#AE7FFB"/>
<stop offset="1" stop-color="#666565"/>
</radialGradient>
<radialGradient id="paint12_radial_85_562" cx="0" cy="0" r="1" gradientUnits="userSpaceOnUse" gradientTransform="translate(945.5 214) rotate(90) scale(28 26.5)">
<stop offset="0.0572917" stop-color="#AE7FFB"/>
<stop offset="1" stop-color="#666565"/>
</radialGradient>
<radialGradient id="paint13_radial_85_562" cx="0" cy="0" r="1" gradientUnits="userSpaceOnUse" gradientTransform="translate(849.5 213) rotate(90) scale(28 26.5)">
<stop offset="0.0572917" stop-color="#AE7FFB"/>
<stop offset="1" stop-color="#666565"/>
</radialGradient>
<radialGradient id="paint14_radial_85_562" cx="0" cy="0" r="1" gradientUnits="userSpaceOnUse" gradientTransform="translate(739.5 200) rotate(90) scale(28 26.5)">
<stop offset="0.0572917" stop-color="#AE7FFB"/>
<stop offset="1" stop-color="#666565"/>
</radialGradient>
<radialGradient id="paint15_radial_85_562" cx="0" cy="0" r="1" gradientUnits="userSpaceOnUse" gradientTransform="translate(635.5 197) rotate(90) scale(28 26.5)">
<stop offset="0.0572917" stop-color="#AE7FFB"/>
<stop offset="1" stop-color="#666565"/>
</radialGradient>
<radialGradient id="paint16_radial_85_562" cx="0" cy="0" r="1" gradientUnits="userSpaceOnUse" gradientTransform="translate(945.5 116) rotate(90) scale(28 26.5)">
<stop offset="0.0572917" stop-color="#AE7FFB"/>
<stop offset="1" stop-color="#666565"/>
</radialGradient>
<radialGradient id="paint17_radial_85_562" cx="0" cy="0" r="1" gradientUnits="userSpaceOnUse" gradientTransform="translate(524.5 98) rotate(90) scale(28 26.5)">
<stop offset="0.0572917" stop-color="#AE7FFB"/>
<stop offset="1" stop-color="#666565"/>
</radialGradient>
<radialGradient id="paint18_radial_85_562" cx="0" cy="0" r="1" gradientUnits="userSpaceOnUse" gradientTransform="translate(313.5 70) rotate(90) scale(28 26.5)">
<stop offset="0.0572917" stop-color="#AE7FFB"/>
<stop offset="1" stop-color="#666565"/>
</radialGradient>
<radialGradient id="paint19_radial_85_562" cx="0" cy="0" r="1" gradientUnits="userSpaceOnUse" gradientTransform="translate(236.5 60) rotate(90) scale(28 26.5)">
<stop offset="0.0572917" stop-color="#AE7FFB"/>
<stop offset="1" stop-color="#666565"/>
</radialGradient>
<radialGradient id="paint20_radial_85_562" cx="0" cy="0" r="1" gradientUnits="userSpaceOnUse" gradientTransform="translate(183.5 113) rotate(90) scale(28 26.5)">
<stop offset="0.0572917" stop-color="#AE7FFB"/>
<stop offset="1" stop-color="#666565"/>
</radialGradient>
<radialGradient id="paint21_radial_85_562" cx="0" cy="0" r="1" gradientUnits="userSpaceOnUse" gradientTransform="translate(408.5 76) rotate(90) scale(28 26.5)">
<stop offset="0.0572917" stop-color="#AE7FFB"/>
<stop offset="1" stop-color="#666565"/>
</radialGradient>
<radialGradient id="paint22_radial_85_562" cx="0" cy="0" r="1" gradientUnits="userSpaceOnUse" gradientTransform="translate(1146.5 242) rotate(90) scale(27 25.5)">
<stop offset="0.0572917" stop-color="#AE7FFB"/>
<stop offset="1" stop-color="#666565"/>
</radialGradient>
<radialGradient id="paint23_radial_85_562" cx="0" cy="0" r="1" gradientUnits="userSpaceOnUse" gradientTransform="translate(460.5 195) rotate(90) scale(27 25.5)">
<stop offset="0.0572917" stop-color="#AE7FFB"/>
<stop offset="1" stop-color="#666565"/>
</radialGradient>
<radialGradient id="paint24_radial_85_562" cx="0" cy="0" r="1" gradientUnits="userSpaceOnUse" gradientTransform="translate(236 162) rotate(90) scale(27 26)">
<stop offset="0.0572917" stop-color="#AE7FFB"/>
<stop offset="1" stop-color="#666565"/>
</radialGradient>
</defs>
</svg>
