<svg width="423" height="414" viewBox="0 0 423 414" fill="none" xmlns="http://www.w3.org/2000/svg">
<path d="M69.7969 174.312C96.7521 129.803 149.379 92.7125 202.862 83.3162C210.26 83.3162 218.41 106.416 222.543 111.01C226.321 115.209 205.898 123.854 196.377 130.553L194.732 131.781C179.757 117.44 159.793 121.89 152.802 151.068C150.29 161.554 103.598 151.068 59.5282 208.93C41.4253 232.698 30.8615 258.384 30.8615 280.144C30.8615 301.903 40.2744 345.423 89.0506 364.71C116.474 375.554 142.778 364.71 144.245 360.259C155.717 325.453 121.996 345.423 108.732 345.423C116.463 345.032 113.867 330.092 113.867 330.092C113.867 330.092 129.697 316.245 305.976 332.071C320.746 329.841 359.031 337.51 389.837 320.202C394.116 320.202 370.583 350.863 370.583 350.863C361.024 355.557 344.484 348.39 335.927 348.39H327.797C327.797 348.39 326.514 346.412 319.668 350.863C312.822 355.314 360.315 377.568 409.519 388.943C416.298 393.493 398.076 397.497 389.837 401.306C369.577 410.673 208.215 409.714 174.195 409.714C132.265 409.714 54.4244 413.67 36.8515 401.306C19.2787 388.943 13.6126 358.924 12.4634 353.336C0.055444 293.002 2.36099 289.94 12.4634 266.791C36.8515 210.908 43.9021 217.069 69.7969 174.312Z" fill="#D9D9D9"/>
<path d="M370.583 350.863C361.024 355.557 344.484 348.39 335.927 348.39C327.369 348.39 327.797 348.39 327.797 348.39C327.797 348.39 326.514 346.412 319.668 350.863C312.822 355.314 360.315 377.568 409.519 388.943C416.298 393.493 398.076 397.497 389.837 401.306C369.577 410.674 208.215 409.714 174.195 409.714C132.265 409.714 54.4244 413.67 36.8515 401.306C19.2787 388.943 13.6126 358.924 12.4634 353.336C0.055444 293.002 2.36099 289.94 12.4634 266.791C36.8515 210.908 43.9021 217.069 69.7969 174.312C96.7521 129.803 149.379 92.7125 202.862 83.3162C210.26 83.3162 218.41 106.416 222.543 111.01M370.583 350.863C370.583 350.863 394.116 320.202 389.837 320.202M370.583 350.863L389.837 320.202M389.837 320.202C359.031 337.51 320.746 329.841 305.976 332.071C129.697 316.245 113.867 330.092 113.867 330.092C113.867 330.092 116.463 345.032 108.732 345.423C121.996 345.423 155.717 325.453 144.245 360.259C142.778 364.71 116.474 375.554 89.0506 364.71C40.2744 345.423 30.8615 301.903 30.8615 280.144C30.8615 258.384 41.4253 232.698 59.5282 208.93C103.598 151.068 150.29 161.554 152.802 151.068C159.793 121.89 179.757 117.44 194.732 131.781M194.732 131.781C203.259 124.948 226.556 115.471 222.543 111.01M194.732 131.781L222.543 111.01" stroke="black" stroke-width="7"/>
<path d="M79.0344 110.664L79.2585 110.504L79.4548 110.311C94.5852 95.4247 105.211 91.7297 114.143 92.002C118.735 92.142 123.149 93.3334 127.856 95.0114C129.864 95.7271 131.876 96.5124 133.977 97.3325C134.346 97.4767 134.718 97.6219 135.093 97.7681C137.418 98.6731 139.841 99.6024 142.364 100.458C155.362 110.239 167.613 136.752 149.288 164.078C138.525 174.804 128.243 182.481 117.871 186.283C107.602 190.048 97.0629 190.084 85.4966 185.15C65.5227 174.766 59.3317 159.697 60.1812 145.652C61.0537 131.227 69.377 117.562 79.0344 110.664Z" fill="white" stroke="black" stroke-width="7"/>
<path d="M210.317 39.8338C206.342 38.1501 168.764 51.1738 164.364 61.6361C159.964 72.0984 175.312 94.7022 179.478 116.223C183.645 137.744 179.374 167.698 184.133 186.001C188.891 204.303 221.201 273.46 224.804 277.485C228.407 281.51 241.263 265.614 246.215 272.178C251.167 278.742 264.37 312.264 264.37 312.264C264.37 312.264 282.027 302.4 286.19 299.932C290.353 297.464 265.849 265.797 266.269 261.802C266.689 257.807 289.874 248.984 289.874 248.984L273.076 233.587C273.076 233.587 261.635 179.929 246.215 136C239.534 116.967 238.1 122.977 224.804 92.4999C211.508 62.023 214.293 41.5175 210.317 39.8338Z" fill="#D9D9D9" stroke="black" stroke-width="7"/>
<path d="M363.959 139.375L363.94 139.708L363.984 140.039C366.475 158.573 360.22 171.096 350.356 178.933C340.304 186.919 326.121 190.322 312.547 189.555C298.739 188.775 287.735 185.591 279.73 180.346C271.807 175.155 266.664 167.848 264.602 158.366C258.206 128.945 264.091 110.269 274.201 99.1394C284.414 87.897 299.559 83.6541 312.978 84.4121C326.146 85.1561 339.331 91.9551 349.05 102.194C358.761 112.425 364.727 125.784 363.959 139.375Z" fill="white" stroke="black" stroke-width="7"/>
<path d="M327.3 137.054C327.931 140.61 328.486 143.76 328.685 146.638C328.884 149.505 328.702 151.821 328.032 153.716C326.849 157.067 323.652 160.372 313.809 162.119C303.967 163.866 299.828 161.864 297.563 159.126C296.283 157.576 295.314 155.465 294.514 152.704C293.71 149.934 293.147 146.785 292.516 143.229C291.472 137.348 293.479 130.324 297.326 124.382C301.217 118.373 306.409 114.346 310.819 113.564C314.66 112.882 317.97 114.723 320.944 119.189C323.952 123.704 326.094 130.264 327.3 137.054Z" fill="black" stroke="black" stroke-width="7"/>
<path d="M120.916 150.629C107.442 163.972 93.5892 161.607 86.7198 155.064C82.4218 146.81 82.6318 142.096 84.1453 138.633C84.9833 136.716 86.34 134.899 88.1812 132.918C89.406 131.599 90.7024 130.351 92.1226 128.983C92.6858 128.44 93.2684 127.879 93.8738 127.288C98.1811 126.348 101.82 125.246 104.935 124.239C105.811 123.955 106.629 123.685 107.399 123.431C109.658 122.685 111.506 122.075 113.214 121.656C115.441 121.109 116.977 121.015 118.266 121.298C119.493 121.567 120.865 122.262 122.582 123.995C129.26 130.74 128.968 142.655 120.916 150.629Z" fill="black" stroke="black" stroke-width="7"/>
<path d="M35.2537 29.0883C35.2495 29.0916 35.2474 29.0933 35.2474 29.0933L30.096 32.5899C30.096 32.5899 31.981 31.1939 35.2537 29.0883C35.6151 28.8038 51.3433 16.5022 76.0953 11.1116C76.3484 11.0563 76.6037 11.0017 76.861 10.9479C105.524 4.93462 152.825 7.53681 152.825 7.53681C152.825 7.53681 103.563 5.36238 76.861 10.9479C76.6043 11.0018 76.349 11.0563 76.0953 11.1116C59.0621 14.8321 43.1345 24.0179 35.2537 29.0883Z" fill="black"/>
<path d="M76.0953 11.1116C51.053 16.5654 35.2474 29.0933 35.2474 29.0933L30.096 32.5899C30.096 32.5899 51.9883 16.3772 76.0953 11.1116ZM76.0953 11.1116C104.673 4.88779 152.825 7.53681 152.825 7.53681C152.825 7.53681 102.609 5.32026 76.0953 11.1116Z" stroke="black" stroke-width="7"/>
<path d="M414.874 15.8532C414.874 15.8532 387.788 8.80748 357.077 6.37666C347.975 4.54072 337.77 4.67267 327.798 5.81309C327.361 5.8361 326.926 5.86078 326.491 5.88716C293.101 7.91444 278.155 18.303 278.155 18.303C278.155 18.303 302.212 8.73897 327.798 5.81309C337.431 5.30502 347.433 5.61326 357.077 6.37666C357.077 6.37667 357.077 6.37667 357.077 6.37668C384.489 11.9054 421.43 18.4977 421.43 18.4977L414.874 15.8532Z" fill="black" stroke="black" stroke-width="7"/>
<path d="M216.622 154.204L217.054 154.316H217.5C231.265 154.316 242.583 155.267 250.54 160.652C258.133 165.791 263.5 175.638 263.5 195.816C263.5 208.687 261.385 219.517 254.95 227.147C248.618 234.654 237.439 239.816 217.5 239.816C204.179 239.816 192.755 237.24 184.7 230.721C176.791 224.319 171.5 213.593 171.5 195.816C171.5 183.651 176.739 171.546 185.078 163.35C193.363 155.208 204.515 151.065 216.622 154.204Z" fill="#939191" stroke="black" stroke-width="7"/>
<line x1="248.376" y1="172.344" x2="234.028" y2="179.94" stroke="black" stroke-width="3" stroke-linecap="round" stroke-dasharray="6 1"/>
<line x1="229.733" y1="165.307" x2="224.991" y2="175.583" stroke="black" stroke-width="3" stroke-linecap="round" stroke-dasharray="6 1"/>
<line x1="205" y1="216.437" x2="197.121" y2="224.316" stroke="black" stroke-width="3" stroke-linecap="round" stroke-dasharray="6 1"/>
<line x1="196.212" y1="205.286" x2="184.97" y2="210.104" stroke="black" stroke-width="3" stroke-linecap="round" stroke-dasharray="6 1"/>
<line x1="251.767" y1="186.042" x2="236.726" y2="188.549" stroke="black" stroke-width="3" stroke-linecap="round" stroke-dasharray="6 1"/>
<line x1="197.5" y1="193.816" x2="182.5" y2="193.816" stroke="black" stroke-width="3" stroke-linecap="round" stroke-dasharray="6 1"/>
<line x1="201.882" y1="180.205" x2="194.889" y2="172.435" stroke="black" stroke-width="3" stroke-linecap="round" stroke-dasharray="6 1"/>
<line x1="251.249" y1="200.514" x2="238.198" y2="198.067" stroke="black" stroke-width="3" stroke-linecap="round" stroke-dasharray="6 1"/>
<line x1="250.927" y1="218.767" x2="239.451" y2="211.389" stroke="black" stroke-width="3" stroke-linecap="round" stroke-dasharray="6 1"/>
<line x1="213.289" y1="175.062" x2="211.746" y2="165.027" stroke="black" stroke-width="3" stroke-linecap="round" stroke-dasharray="6 1"/>
<line x1="233.086" y1="230.401" x2="228.085" y2="216.23" stroke="black" stroke-width="3" stroke-linecap="round" stroke-dasharray="6 1"/>
<line x1="216.5" y1="229.816" x2="216.5" y2="217.816" stroke="black" stroke-width="3" stroke-linecap="round" stroke-dasharray="6 1"/>
<path d="M224.08 359C208.08 359 183.038 349 175.08 339C173.746 345.333 173.538 360.5 175.08 367.5C177.663 379.228 187.038 385.5 197.038 388.5C207.038 391.5 234.08 388 251.58 383.5C265.58 379.9 270.746 355.333 271.58 343.5C264.038 350 240.08 359 224.08 359Z" fill="#F4B2C8" stroke="black" stroke-width="3"/>
<path d="M181.538 363L186.038 349C189.916 349.667 202.189 358.3 211.497 358.833C223.132 359.5 235.413 359.131 240.352 358.167C245.472 357.167 253.694 354.944 258.038 352.5V354.5V359.833L251.056 361.833L239.887 367.5L222.201 369.5H207.308L196.138 367.5L181.538 363Z" fill="white"/>
<path d="M205.213 380.222C204.413 381.422 206.546 383.056 207.713 383.722C207.713 384.556 209.513 386.522 216.713 387.722C225.713 389.222 229.213 387.722 234.213 386.222C239.213 384.722 240.213 385.722 240.213 383.722C240.213 381.722 239.713 380.222 236.713 377.722C233.713 375.222 233.213 375.722 229.213 375.722C225.213 375.722 224.713 375.222 220.213 375.722C216.166 376.172 214.545 376.217 207.713 379.132C206.948 379.458 206.119 379.82 205.213 380.222Z" fill="#DB3834"/>
<path d="M209.038 384.857H192.038C193.538 387.227 196.538 389.5 220.538 389.5C234.938 389.5 240.871 386.405 242.038 384.857H245.038V377L242.038 379.5H234.538L231.038 382.357H225.038H220.538H209.038V384.857Z" fill="white" stroke="black" stroke-width="2"/>
<line x1="209.038" y1="388.5" x2="209.038" y2="381.5" stroke="black" stroke-width="2"/>
<line x1="221.038" y1="388.5" x2="221.038" y2="381.5" stroke="black" stroke-width="2"/>
<line x1="235.038" y1="387.5" x2="235.038" y2="379.5" stroke="black" stroke-width="2"/>
<line x1="209.038" y1="368.5" x2="209.038" y2="357.5" stroke="black" stroke-width="2"/>
<line x1="224.038" y1="369.5" x2="224.038" y2="358.5" stroke="black" stroke-width="2"/>
<line x1="195.04" y1="366.429" x2="196.04" y2="352.429" stroke="black" stroke-width="2"/>
<line x1="239.038" y1="366.5" x2="239.038" y2="356.5" stroke="black" stroke-width="2"/>
<line x1="252.038" y1="360.5" x2="252.038" y2="352.5" stroke="black" stroke-width="2"/>
</svg>
